<?xml version="1.0" encoding="utf-8"?>
<!-- Generator: Adobe Illustrator 17.0.0, SVG Export Plug-In . SVG Version: 6.00 Build 0)  -->
<!DOCTYPE svg PUBLIC "-//W3C//DTD SVG 1.1//EN" "http://www.w3.org/Graphics/SVG/1.1/DTD/svg11.dtd">
<svg version="1.1" id="Capa_1" xmlns="http://www.w3.org/2000/svg" xmlns:xlink="http://www.w3.org/1999/xlink" x="0px" y="0px"
	 width="50px" height="50px" viewBox="0 0 571 560" enable-background="new 0 0 571 560" xml:space="preserve">
<g>
	<g>
		<path fill="#35495E" d="M91.17,27.805c3.48,0.624,84.449,16.963,101.826,108.217c-22.028,23.274-35.691,55.9-35.691,92.138
			c0,0.337,0.027,0.649,0.027,0.961h230.825c0-0.312,0.052-0.624,0.052-0.961c0-36.263-13.715-68.863-35.769-92.163
			c17.402-91.255,98.423-107.594,101.93-108.218c7.534-1.403,12.572-8.65,11.222-16.287c-1.455-7.611-8.65-12.599-16.235-11.274
			c-1.013,0.182-94.294,18.236-121.049,116.113c-16.521-10.026-35.406-15.69-55.563-15.69c-20.079,0-39.016,5.715-55.537,15.69
			C190.45,18.453,97.17,0.4,96.183,0.218c-7.611-1.351-14.806,3.689-16.261,11.299C78.519,19.155,83.584,26.428,91.17,27.805z"/>
		<path fill="#35495E" d="M544.663,163.453c3.039-9.871-2.468-20.313-12.313-23.379c-9.896-3.013-20.288,2.467-23.327,12.365
			c0,0-22.833,73.617-27.69,89.384c-9.949,2.728-40.133,11.248-61.044,16.988c-0.754-3.325-1.403-6.676-2.13-9.923H127.381
			c-0.831,3.247-1.455,6.598-2.156,9.923c-20.937-5.767-51.173-14.26-61.07-16.988c-4.883-15.82-27.69-89.436-27.69-89.436
			c-3.013-9.871-13.533-15.352-23.352-12.339c-9.871,3.065-15.326,13.533-12.26,23.379l33.691,108.841l85.28,23.691
			c-0.649,7.974-1.065,15.872-1.065,24.028c0,10.001,0.546,19.819,1.455,29.457l-85.15,38.107L8.488,538.056
			c-1.818,10.156,4.91,19.82,15.093,21.664c10.156,1.767,19.846-5.013,21.612-15.17c0,0,20.183-114.139,23.197-130.997
			c8.156-3.715,35.172-15.715,58.109-26.002c20.236,86.059,78.033,148.299,146.247,148.299c68.239,0,126.089-62.239,146.298-148.299
			c22.91,10.287,49.953,22.288,58.109,26.002c2.936,16.858,23.197,130.997,23.197,130.997c1.74,10.156,11.481,16.936,21.664,15.17
			c10.156-1.845,16.885-11.508,15.041-21.664l-26.6-150.506l-85.123-38.081c0.909-9.637,1.481-19.457,1.481-29.457
			c0-8.104-0.467-16.054-1.065-24.028l85.28-23.691L544.663,163.453z"/>
	</g>
</g>
</svg>
